<svg id="visual" viewBox="0 0 900 450" width="900" height="450" xmlns="http://www.w3.org/2000/svg" xmlns:xlink="http://www.w3.org/1999/xlink" version="1.1"><rect x="0" y="0" width="900" height="450" fill="#000000"></rect><defs><linearGradient id="grad1_0" x1="50%" y1="0%" x2="100%" y2="100%"><stop offset="10%" stop-color="#000000" stop-opacity="1"></stop><stop offset="90%" stop-color="#000000" stop-opacity="1"></stop></linearGradient></defs><defs><linearGradient id="grad2_0" x1="0%" y1="0%" x2="50%" y2="100%"><stop offset="10%" stop-color="#000000" stop-opacity="1"></stop><stop offset="90%" stop-color="#000000" stop-opacity="1"></stop></linearGradient></defs><g transform="translate(900, 0)"><path d="M0 270C-34 240.5 -68 211.1 -111 192.3C-154 173.4 -205.8 165.3 -233.8 135C-261.8 104.7 -265.9 52.4 -270 0L0 0Z" fill="#FBAE3C"></path></g><g transform="translate(0, 450)"><path d="M0 -270C42.8 -255.8 85.6 -241.6 127.5 -220.8C169.4 -200.1 210.2 -172.9 233.8 -135C257.4 -97.1 263.7 -48.6 270 0L0 0Z" fill="#FBAE3C"></path></g></svg>